<svg width="48" height="48" viewBox="0 0 48 48" fill="none" xmlns="http://www.w3.org/2000/svg">
<path d="M44 29.6293L36.2192 29.6293C34.8225 31.562 32.8605 33.4748 30.6135 34.2069C28.3666 34.9389 25.9494 34.9308 23.7072 34.1836C21.4651 33.4364 19.5125 31.9884 18.1284 30.0463C16.7443 28.1042 15.9994 25.7674 16 23.3694C16 20.4512 17.0809 17.823 18.8588 15.8098C19.9749 14.5458 21.684 14.07 23.3702 14.07L24.5485 14.07L29.598 10.9447C30.2642 10.5324 31.1242 11.0115 31.1242 11.795L31.1242 13.85L36.2444 13.85C37.349 13.85 38.2444 14.7454 38.2444 15.85L38.2444 19.3879L44.5 19.3879" stroke="white" stroke-width="2" stroke-miterlimit="10"/>
<path d="M22.2213 3.07546C27.5559 2.62201 32.8622 4.22313 37.0556 7.55153C41.249 10.8799 44.0128 15.6843 44.7821 20.9825C45.5514 26.2807 44.268 31.6727 41.1944 36.0562C38.1208 40.4398 33.4889 43.4839 28.2457 44.5663" stroke="white" stroke-width="2"/>
<path d="M25.15 44.9685C19.9762 45.2523 14.8801 43.6132 10.8418 40.3665C6.80344 37.1197 4.10804 32.4947 3.27389 27.3806C2.43975 22.2666 3.52576 17.0247 6.32309 12.663C9.12042 8.30136 13.4315 5.12788 18.4274 3.75288" stroke="#00E0FF" stroke-width="2"/>
<path d="M26.4217 24.9388C25.7855 25.8418 24.5377 26.058 23.6348 25.4218C22.7319 24.7856 22.5156 23.5378 23.1519 22.6349C23.7881 21.7319 25.0358 21.5157 25.9387 22.152C26.8417 22.7882 27.0579 24.0359 26.4217 24.9388Z" fill="#00E0FF"/>
<path fill-rule="evenodd" clip-rule="evenodd" d="M22.0107 21.3691C21.8589 21.5173 21.7185 21.6814 21.5919 21.8611C21.3163 22.2522 21.1321 22.6803 21.0349 23.1201L5.95598 13.3387L7.04439 11.6608L22.0107 21.3691ZM22.6723 20.8629C23.2629 20.5144 23.943 20.3484 24.6222 20.3807L18.4444 2.67041L16.556 3.32914L22.6723 20.8629ZM25.9413 27.0455C25.3175 27.3378 24.6173 27.441 23.9339 27.3391L23.5005 45.9765L25.4999 46.023L25.9413 27.0455ZM23.6338 27.2808C23.216 27.1803 22.8097 27.0007 22.4371 26.7381C22.2217 26.5864 22.0287 26.4147 21.8587 26.2275L9.29309 38.7927L10.7073 40.2069L23.6338 27.2808ZM21.54 25.8189C21.152 25.2365 20.9508 24.5534 20.9528 23.864L2.90967 25.5039L3.0907 27.4957L21.54 25.8189Z" fill="#00E0FF"/>
</svg>
